<svg width="710" height="254" viewBox="0 0 710 254" fill="none" xmlns="http://www.w3.org/2000/svg">
<path d="M354.784 115.64C350.432 115.64 346.656 114.744 343.456 112.952C340.299 111.117 337.867 108.557 336.16 105.272C334.453 101.944 333.6 98.04 333.6 93.56C333.6 89.08 334.56 85.1973 336.48 81.912C338.4 78.584 341.131 76.024 344.672 74.232C348.256 72.3973 352.501 71.48 357.408 71.48C361.888 71.48 365.771 72.1627 369.056 73.528C372.341 74.8507 374.88 76.7493 376.672 79.224C378.464 81.656 379.36 84.6 379.36 88.056V88.568H368.672V88.056C368.672 85.5387 367.776 83.6827 365.984 82.488C364.192 81.2933 361.248 80.696 357.152 80.696C353.909 80.696 351.307 81.1227 349.344 81.976C347.424 82.7867 346.016 84.1307 345.12 86.008C344.224 87.8427 343.776 90.36 343.776 93.56C343.776 96.7173 344.203 99.2347 345.056 101.112C345.909 102.989 347.275 104.355 349.152 105.208C351.072 106.019 353.589 106.424 356.704 106.424C360.117 106.424 362.784 106.211 364.704 105.784C366.624 105.315 367.947 104.525 368.672 103.416C369.44 102.307 369.824 100.749 369.824 98.744V96.824L379.424 96.76V97.72L371.232 105.784H370.016C369.504 107.661 368.651 109.347 367.456 110.84C366.261 112.333 364.619 113.507 362.528 114.36C360.48 115.213 357.899 115.64 354.784 115.64ZM379.424 115H370.528V103.416L369.824 102.264V92.984H379.424V115ZM379.424 99.448H355.296V92.344H379.424V99.448ZM397.371 115.64C394.384 115.64 391.888 115.085 389.883 113.976C387.92 112.824 386.448 111.288 385.467 109.368C384.528 107.448 384.059 105.293 384.059 102.904V82.936H393.659V99.704C393.659 102.264 394.277 104.141 395.515 105.336C396.752 106.488 398.885 107.064 401.915 107.064C405.072 107.064 407.269 106.445 408.507 105.208C409.787 103.928 410.427 101.923 410.427 99.192L411.643 99.128L412.347 105.208H410.555C410.299 107 409.659 108.685 408.635 110.264C407.653 111.843 406.224 113.144 404.347 114.168C402.512 115.149 400.187 115.64 397.371 115.64ZM420.027 115H411.067V105.08L410.427 104.76V82.936H420.027V115ZM434.535 115H424.935V82.936H434.535V115ZM434.535 79.672H424.935V72.12H434.535V79.672ZM449.16 115H439.56V72.12H449.16V115ZM463.785 115H454.185V72.12H463.785V115ZM501.194 115H492.234V107.384L491.722 107.256V96.056C491.722 93.9653 491.189 92.5573 490.122 91.832C489.098 91.1067 487.306 90.744 484.746 90.744C482.314 90.744 480.565 91.1067 479.498 91.832C478.431 92.5573 477.898 93.8373 477.898 95.672V95.928H468.234V95.736C468.234 93.0907 468.938 90.7653 470.346 88.76C471.754 86.712 473.738 85.1333 476.298 84.024C478.901 82.872 481.951 82.296 485.45 82.296C489.034 82.296 491.978 82.872 494.282 84.024C496.629 85.176 498.357 86.7973 499.466 88.888C500.618 90.936 501.194 93.368 501.194 96.184V115ZM478.666 115.64C475.21 115.64 472.501 114.872 470.538 113.336C468.575 111.8 467.594 109.709 467.594 107.064C467.594 105.443 467.978 104.056 468.746 102.904C469.514 101.752 470.666 100.835 472.202 100.152C473.738 99.4267 475.658 98.936 477.962 98.68L492.362 97.208V102.712L480.586 104.056C479.434 104.141 478.581 104.376 478.026 104.76C477.514 105.101 477.258 105.656 477.258 106.424C477.258 107.277 477.599 107.896 478.282 108.28C478.965 108.664 480.01 108.856 481.418 108.856C483.722 108.856 485.621 108.643 487.114 108.216C488.607 107.789 489.738 107.107 490.506 106.168C491.317 105.187 491.722 103.885 491.722 102.264L492.618 102.2V107.64H491.722C490.997 110.115 489.525 112.077 487.306 113.528C485.13 114.936 482.25 115.64 478.666 115.64ZM519.308 115.64C516.321 115.64 513.825 115.085 511.82 113.976C509.857 112.824 508.385 111.288 507.404 109.368C506.465 107.448 505.996 105.293 505.996 102.904V82.936H515.596V99.704C515.596 102.264 516.215 104.141 517.452 105.336C518.689 106.488 520.823 107.064 523.852 107.064C527.009 107.064 529.207 106.445 530.444 105.208C531.724 103.928 532.364 101.923 532.364 99.192L533.58 99.128L534.284 105.208H532.492C532.236 107 531.596 108.685 530.572 110.264C529.591 111.843 528.161 113.144 526.284 114.168C524.449 115.149 522.124 115.64 519.308 115.64ZM541.964 115H533.004V105.08L532.364 104.76V82.936H541.964V115ZM605.369 115H595.769V98.232C595.769 95.5867 595.235 93.7093 594.169 92.6C593.102 91.4907 591.182 90.936 588.409 90.936C585.507 90.936 583.523 91.5547 582.457 92.792C581.433 94.0293 580.921 96.0347 580.921 98.808H579.705L578.937 92.792H580.793C581.049 90.9573 581.603 89.2507 582.457 87.672C583.353 86.0933 584.654 84.8133 586.361 83.832C588.11 82.808 590.35 82.296 593.081 82.296C595.854 82.296 598.137 82.8507 599.929 83.96C601.763 85.0693 603.129 86.584 604.025 88.504C604.921 90.424 605.369 92.6 605.369 95.032V115ZM556.473 115H546.873V82.936H555.769V92.92L556.473 93.24V115ZM580.921 115H571.321V98.232C571.321 95.5867 570.787 93.7093 569.721 92.6C568.654 91.4907 566.734 90.936 563.961 90.936C561.017 90.936 559.033 91.5547 558.009 92.792C556.985 94.0293 556.473 96.0347 556.473 98.808H555.257L554.553 92.664H556.281C556.579 90.872 557.155 89.208 558.009 87.672C558.862 86.0933 560.121 84.8133 561.785 83.832C563.449 82.808 565.625 82.296 568.313 82.296C571.086 82.296 573.347 82.872 575.097 84.024C576.889 85.176 578.211 86.712 579.065 88.632C579.918 90.552 580.345 92.6853 580.345 95.032H580.921V115ZM627.272 115.64C623.73 115.64 620.594 115.043 617.864 113.848C615.133 112.653 613.021 110.819 611.528 108.344C610.034 105.869 609.288 102.755 609.288 99C609.288 95.5867 610.034 92.6427 611.528 90.168C613.021 87.6507 615.09 85.7093 617.736 84.344C620.424 82.9787 623.538 82.296 627.08 82.296C630.578 82.296 633.629 82.8933 636.232 84.088C638.877 85.2827 640.925 87.0533 642.376 89.4C643.826 91.704 644.552 94.52 644.552 97.848C644.552 98.4027 644.53 98.9147 644.488 99.384C644.445 99.8533 644.381 100.365 644.296 100.92H615.496V95.864H637.512L635.336 99C635.336 98.5733 635.336 98.168 635.336 97.784C635.336 97.4 635.336 97.016 635.336 96.632C635.336 94.2 634.674 92.4507 633.352 91.384C632.029 90.3173 629.874 89.784 626.888 89.784C623.645 89.784 621.384 90.424 620.104 91.704C618.824 92.9413 618.184 94.9253 618.184 97.656V100.088C618.184 102.819 618.824 104.824 620.104 106.104C621.384 107.341 623.666 107.96 626.952 107.96C629.768 107.96 631.752 107.597 632.904 106.872C634.056 106.147 634.632 105.101 634.632 103.736V103.096H644.232V103.8C644.232 106.104 643.528 108.152 642.12 109.944C640.712 111.736 638.728 113.144 636.168 114.168C633.65 115.149 630.685 115.64 627.272 115.64Z" fill="#960018"/>
<path d="M354.016 179.64C349.707 179.64 346.037 179.085 343.008 177.976C339.979 176.824 337.675 175.139 336.096 172.92C334.517 170.659 333.728 167.864 333.728 164.536V164.152H343.328V165.304C343.328 166.627 343.605 167.693 344.16 168.504C344.757 169.315 345.824 169.912 347.36 170.296C348.896 170.68 351.115 170.872 354.016 170.872C356.576 170.872 358.539 170.744 359.904 170.488C361.269 170.189 362.208 169.741 362.72 169.144C363.232 168.547 363.488 167.779 363.488 166.84C363.488 165.517 363.04 164.557 362.144 163.96C361.291 163.363 359.776 162.872 357.6 162.488L345.568 160.76C343.008 160.333 340.811 159.629 338.976 158.648C337.184 157.667 335.797 156.365 334.816 154.744C333.835 153.08 333.344 151.075 333.344 148.728C333.344 147.107 333.685 145.507 334.368 143.928C335.093 142.349 336.224 140.941 337.76 139.704C339.296 138.424 341.301 137.4 343.776 136.632C346.293 135.864 349.365 135.48 352.992 135.48C357.387 135.48 360.992 136.12 363.808 137.4C366.667 138.637 368.8 140.408 370.208 142.712C371.616 144.973 372.32 147.597 372.32 150.584V150.968H362.656V150.072C362.656 148.707 362.357 147.597 361.76 146.744C361.205 145.891 360.16 145.272 358.624 144.888C357.088 144.461 354.891 144.248 352.032 144.248C349.728 144.248 347.915 144.397 346.592 144.696C345.312 144.995 344.395 145.443 343.84 146.04C343.285 146.637 343.008 147.405 343.008 148.344C343.008 149.155 343.179 149.837 343.52 150.392C343.861 150.904 344.395 151.309 345.12 151.608C345.845 151.907 346.805 152.163 348 152.376L360.032 154.296C363.232 154.808 365.771 155.64 367.648 156.792C369.568 157.944 370.955 159.352 371.808 161.016C372.661 162.637 373.088 164.429 373.088 166.392C373.088 168.696 372.448 170.872 371.168 172.92C369.888 174.925 367.84 176.547 365.024 177.784C362.208 179.021 358.539 179.64 354.016 179.64ZM409.382 179H400.422V171.384L399.91 171.256V160.056C399.91 157.965 399.376 156.557 398.31 155.832C397.286 155.107 395.494 154.744 392.934 154.744C390.502 154.744 388.752 155.107 387.686 155.832C386.619 156.557 386.086 157.837 386.086 159.672V159.928H376.422V159.736C376.422 157.091 377.126 154.765 378.534 152.76C379.942 150.712 381.926 149.133 384.486 148.024C387.088 146.872 390.139 146.296 393.638 146.296C397.222 146.296 400.166 146.872 402.47 148.024C404.816 149.176 406.544 150.797 407.654 152.888C408.806 154.936 409.382 157.368 409.382 160.184V179ZM386.854 179.64C383.398 179.64 380.688 178.872 378.726 177.336C376.763 175.8 375.782 173.709 375.782 171.064C375.782 169.443 376.166 168.056 376.934 166.904C377.702 165.752 378.854 164.835 380.39 164.152C381.926 163.427 383.846 162.936 386.15 162.68L400.55 161.208V166.712L388.774 168.056C387.622 168.141 386.768 168.376 386.214 168.76C385.702 169.101 385.446 169.656 385.446 170.424C385.446 171.277 385.787 171.896 386.47 172.28C387.152 172.664 388.198 172.856 389.606 172.856C391.91 172.856 393.808 172.643 395.302 172.216C396.795 171.789 397.926 171.107 398.694 170.168C399.504 169.187 399.91 167.885 399.91 166.264L400.806 166.2V171.64H399.91C399.184 174.115 397.712 176.077 395.494 177.528C393.318 178.936 390.438 179.64 386.854 179.64ZM438.12 179H426.28L411.688 146.936H422.376L431.976 169.656H432.616L442.28 146.936H452.776L438.12 179ZM487.694 179H478.734V171.384L478.222 171.256V160.056C478.222 157.965 477.689 156.557 476.622 155.832C475.598 155.107 473.806 154.744 471.246 154.744C468.814 154.744 467.065 155.107 465.998 155.832C464.931 156.557 464.398 157.837 464.398 159.672V159.928H454.734V159.736C454.734 157.091 455.438 154.765 456.846 152.76C458.254 150.712 460.238 149.133 462.798 148.024C465.401 146.872 468.451 146.296 471.95 146.296C475.534 146.296 478.478 146.872 480.782 148.024C483.129 149.176 484.857 150.797 485.966 152.888C487.118 154.936 487.694 157.368 487.694 160.184V179ZM465.166 179.64C461.71 179.64 459.001 178.872 457.038 177.336C455.075 175.8 454.094 173.709 454.094 171.064C454.094 169.443 454.478 168.056 455.246 166.904C456.014 165.752 457.166 164.835 458.702 164.152C460.238 163.427 462.158 162.936 464.462 162.68L478.862 161.208V166.712L467.086 168.056C465.934 168.141 465.081 168.376 464.526 168.76C464.014 169.101 463.758 169.656 463.758 170.424C463.758 171.277 464.099 171.896 464.782 172.28C465.465 172.664 466.51 172.856 467.918 172.856C470.222 172.856 472.121 172.643 473.614 172.216C475.107 171.789 476.238 171.107 477.006 170.168C477.817 169.187 478.222 167.885 478.222 166.264L479.118 166.2V171.64H478.222C477.497 174.115 476.025 176.077 473.806 177.528C471.63 178.936 468.75 179.64 465.166 179.64ZM502.16 179H492.56V146.936H501.456V156.088L502.16 156.408V179ZM502.16 160.44H500.24V155.448H502.032C502.331 153.699 502.907 152.141 503.76 150.776C504.656 149.368 505.851 148.28 507.344 147.512C508.837 146.701 510.651 146.296 512.784 146.296C515.216 146.296 517.157 146.808 518.608 147.832C520.101 148.813 521.189 150.157 521.872 151.864C522.555 153.528 522.896 155.405 522.896 157.496V162.808H513.296V159.48C513.296 157.688 512.891 156.408 512.08 155.64C511.312 154.829 509.947 154.424 507.984 154.424C505.851 154.424 504.336 154.915 503.44 155.896C502.587 156.877 502.16 158.392 502.16 160.44ZM532.517 189.88H527.269V181.176H535.141C536.335 181.176 537.231 181.005 537.829 180.664C538.426 180.323 538.917 179.725 539.301 178.872L540.645 175.736L539.685 180.216L523.492 146.936H534.373L541.157 161.592L543.845 169.144H544.485L547.045 161.528L553.125 146.936H563.812L547.941 181.304C546.917 183.523 545.722 185.251 544.357 186.488C542.991 187.768 541.349 188.643 539.429 189.112C537.509 189.624 535.205 189.88 532.517 189.88Z" fill="#960018"/>
<g clip-path="url(#clip0_14_402)">
<path d="M63 63H100.4C109.361 63 113.841 63 117.264 64.7439C120.274 66.2779 122.722 68.7256 124.256 71.7362C126 75.1587 126 79.6392 126 88.6V191H75.8C71.3196 191 69.0794 191 67.3681 190.128C65.8628 189.361 64.6389 188.137 63.8719 186.632C63 184.921 63 182.68 63 178.2V63Z" fill="#960018"/>
<path d="M142 63H244.4C253.361 63 257.841 63 261.264 64.7439C264.274 66.2779 266.722 68.7256 268.256 71.7362C270 75.1587 270 79.6392 270 88.6V97.6667H154.8C150.32 97.6667 148.079 97.6667 146.368 96.7947C144.863 96.0277 143.639 94.8039 142.872 93.2986C142 91.5873 142 89.3471 142 84.8667V63Z" fill="#960018"/>
<path d="M142 109.667H172.4C181.361 109.667 185.841 109.667 189.264 111.411C192.274 112.945 194.722 115.392 196.256 118.403C198 121.825 198 126.306 198 135.267V144.333H154.8C150.32 144.333 148.079 144.333 146.368 143.461C144.863 142.694 143.639 141.471 142.872 139.965C142 138.254 142 136.014 142 131.533V109.667Z" fill="#960018"/>
<path d="M214 109.667H244.4C253.361 109.667 257.841 109.667 261.264 111.411C264.274 112.945 266.722 115.392 268.256 118.403C270 121.825 270 126.306 270 135.267V144.333H226.8C222.32 144.333 220.079 144.333 218.368 143.461C216.863 142.694 215.639 141.471 214.872 139.965C214 138.254 214 136.014 214 131.533V109.667Z" fill="#960018"/>
<path d="M142 156.333H244.4C253.361 156.333 257.841 156.333 261.264 158.077C264.274 159.611 266.722 162.059 268.256 165.069C270 168.492 270 172.972 270 181.933V191H154.8C150.32 191 148.079 191 146.368 190.128C144.863 189.361 143.639 188.137 142.872 186.632C142 184.921 142 182.68 142 178.2V156.333Z" fill="#960018"/>
</g>
<defs>
<clipPath id="clip0_14_402">
<rect width="207" height="128" fill="white" transform="translate(63 63)"/>
</clipPath>
</defs>
</svg>
