<svg width="104" height="104" viewBox="0 0 104 104" fill="none" xmlns="http://www.w3.org/2000/svg">
<rect width="104" height="104" rx="16" fill="#960018"/>
<path d="M16 16H28.26C30.5002 16 31.6203 16 32.476 16.436C33.2286 16.8195 33.8405 17.4314 34.224 18.184C34.66 19.0397 34.66 20.1598 34.66 22.4V88H22.4C20.1598 88 19.0397 88 18.184 87.564C17.4314 87.1805 16.8195 86.5686 16.436 85.816C16 84.9603 16 83.8402 16 81.6V16Z" fill="white"/>
<path d="M42.66 16H81.6C83.8402 16 84.9603 16 85.816 16.436C86.5686 16.8195 87.1806 17.4314 87.5641 18.184C88 19.0397 88 20.1598 88 22.4V34.6667H49.06C46.8198 34.6667 45.6997 34.6667 44.8441 34.2307C44.0914 33.8472 43.4795 33.2353 43.096 32.4826C42.66 31.627 42.66 30.5069 42.66 28.2667V16Z" fill="white"/>
<path d="M42.66 42.6667H54.92C57.1602 42.6667 58.2803 42.6667 59.136 43.1027C59.8886 43.4862 60.5006 44.0981 60.8841 44.8507C61.32 45.7064 61.32 46.8265 61.32 49.0667V61.3334H49.06C46.8198 61.3334 45.6997 61.3334 44.8441 60.8974C44.0914 60.5139 43.4795 59.902 43.096 59.1493C42.66 58.2937 42.66 57.1736 42.66 54.9334V42.6667Z" fill="white"/>
<path d="M69.3201 42.6667H81.5801C83.8203 42.6667 84.9404 42.6667 85.796 43.1027C86.5487 43.4862 87.1606 44.0981 87.5441 44.8507C87.9801 45.7064 87.9801 46.8265 87.9801 49.0667V61.3334H75.7201C73.4799 61.3334 72.3598 61.3334 71.5041 60.8974C70.7515 60.5139 70.1395 59.902 69.756 59.1493C69.3201 58.2937 69.3201 57.1736 69.3201 54.9334V42.6667Z" fill="white"/>
<path d="M42.66 69.3333H81.6C83.8402 69.3333 84.9603 69.3333 85.816 69.7693C86.5686 70.1528 87.1806 70.7647 87.5641 71.5174C88 72.373 88 73.4931 88 75.7333V88H49.06C46.8198 88 45.6997 88 44.8441 87.564C44.0914 87.1805 43.4795 86.5686 43.096 85.8159C42.66 84.9603 42.66 83.8402 42.66 81.6V69.3333Z" fill="white"/>
</svg>
