<svg width="333" height="333" viewBox="0 0 333 333" fill="none" xmlns="http://www.w3.org/2000/svg">
<rect width="333" height="333" fill="#960018"/>
<g clip-path="url(#clip0_14_507)">
<path d="M63 102H94C105.201 102 110.802 102 115.08 104.18C118.843 106.097 121.903 109.157 123.82 112.92C126 117.198 126 122.799 126 134V230H75.8C71.3196 230 69.0794 230 67.3681 229.128C65.8628 228.361 64.6389 227.137 63.8719 225.632C63 223.921 63 221.68 63 217.2V102Z" fill="white"/>
<path d="M142 102H238C249.201 102 254.802 102 259.08 104.18C262.843 106.097 265.903 109.157 267.82 112.92C270 117.198 270 122.799 270 134V136.667H154.8C150.32 136.667 148.079 136.667 146.368 135.795C144.863 135.028 143.639 133.804 142.872 132.299C142 130.587 142 128.347 142 123.867V102Z" fill="white"/>
<path d="M142 148.667H166C177.201 148.667 182.802 148.667 187.08 150.846C190.843 152.764 193.903 155.823 195.82 159.587C198 163.865 198 169.465 198 180.666V183.333H154.8C150.32 183.333 148.079 183.333 146.368 182.461C144.863 181.694 143.639 180.47 142.872 178.965C142 177.254 142 175.014 142 170.533V148.667Z" fill="white"/>
<path d="M214 148.667H238C249.201 148.667 254.802 148.667 259.08 150.846C262.843 152.764 265.903 155.823 267.82 159.587C270 163.865 270 169.465 270 180.666V183.333H226.8C222.32 183.333 220.079 183.333 218.368 182.461C216.863 181.694 215.639 180.47 214.872 178.965C214 177.254 214 175.014 214 170.533V148.667Z" fill="white"/>
<path d="M142 195.333H238C249.201 195.333 254.802 195.333 259.08 197.513C262.843 199.431 265.903 202.49 267.82 206.254C270 210.532 270 216.132 270 227.333V230H154.8C150.32 230 148.079 230 146.368 229.128C144.863 228.361 143.639 227.137 142.872 225.632C142 223.921 142 221.681 142 217.2V195.333Z" fill="white"/>
</g>
<defs>
<clipPath id="clip0_14_507">
<rect width="207" height="128" fill="white" transform="translate(63 102)"/>
</clipPath>
</defs>
</svg>
